<svg fill="none" height="24" viewBox="0 0 24 24" width="24" xmlns="http://www.w3.org/2000/svg"><g fill="#000"><path d="m16.3125 11.25h-8.625c-.10313 0-.1875.0844-.1875.1875v1.125c0 .1031.08437.1875.1875.1875h8.625c.1031 0 .1875-.0844.1875-.1875v-1.125c0-.1031-.0844-.1875-.1875-.1875z"/><path d="m12 1.5c-5.79844 0-10.5 4.70156-10.5 10.5 0 5.7984 4.70156 10.5 10.5 10.5 5.7984 0 10.5-4.7016 10.5-10.5 0-5.79844-4.7016-10.5-10.5-10.5zm0 19.2188c-4.81406 0-8.71875-3.9047-8.71875-8.7188 0-4.81406 3.90469-8.71875 8.71875-8.71875 4.8141 0 8.7188 3.90469 8.7188 8.71875 0 4.8141-3.9047 8.7188-8.7188 8.7188z"/></g></svg>