<svg fill="none" height="24" viewBox="0 0 24 24" width="24" xmlns="http://www.w3.org/2000/svg"><g fill="#000"><path d="m21 9h-1.42l-3.712-6.496-1.736.992 3.145 5.504h-10.55398l3.146-5.504-1.737-.992-3.712 6.496h-1.42c-.15371.00017-.3053.03573-.44305.10393-.13774.0682-.25793.1672-.35125.28934-.09332.12213-.15726.26411-.18686.41494s-.02407.30649.01616.45479l2.799 10.264c.11635.4228.36811.7958.7167 1.0618.34859.2661.77478.4105 1.2133.4112h10.47298c.898 0 1.692-.605 1.93-1.475l2.799-10.263c.0407-.1484.0466-.3042.0171-.45523s-.0935-.29319-.187-.41539c-.0936-.12219-.2141-.2211-.3522-.28899-.1381-.0679-.29-.10294-.4439-.10239zm-3.764 11v1-1h-10.47198l-2.454-9h15.37998z"/><path d="m9 13h2v5h-2zm4 0h2v5h-2z"/></g></svg>